HIERARCHY
ROOT hip
{
	OFFSET 0.000000 0.000000 0.000000 
	CHANNELS 6 Xposition Yposition Zposition Xrotation Zrotation Yrotation
	JOINT abdomen
	{
		OFFSET 0.000000 3.402643 0.000000 
		CHANNELS 3 Xrotation Zrotation Yrotation
		JOINT chest
		{
			OFFSET 0.000000 8.438565 -0.680529 
			CHANNELS 3 Xrotation Zrotation Yrotation
			JOINT neck
			{
				OFFSET 0.000000 10.207942 -0.272212 
				CHANNELS 3 Xrotation Zrotation Yrotation
				JOINT head
				{
					OFFSET 0.000000 3.130431 0.000000 
					CHANNELS 3 Xrotation Zrotation Yrotation
					End Site
					{
						OFFSET 0.000000 3.130435 0.000000 
					}
				}
			}
			JOINT lCollar
			{
				OFFSET 3.470700 6.669187 -0.816635 
				CHANNELS 3 Yrotation Zrotation Xrotation
				JOINT lShldr
				{
					OFFSET 3.198488 0.000000 0.000000 
					CHANNELS 3 Zrotation Yrotation Xrotation
					JOINT lForeArm
					{
						OFFSET 10.139888 0.000000 0.000000 
						CHANNELS 3 Yrotation Zrotation Xrotation
						JOINT lHand
						{
							OFFSET 8.370511 0.000000 0.000000 
							CHANNELS 3 Zrotation Yrotation Xrotation
							End Site
							{
								OFFSET 4.083176 0.000000 0.000000 
							}
						}
					}
				}
			}
			JOINT rCollar
			{
				OFFSET -3.470700 6.669187 -0.816635 
				CHANNELS 3 Yrotation Zrotation Xrotation
				JOINT rShldr
				{
					OFFSET -3.198488 0.000000 0.000000 
					CHANNELS 3 Zrotation Yrotation Xrotation
					JOINT rForeArm
					{
						OFFSET -10.139888 0.000000 0.000000 
						CHANNELS 3 Yrotation Zrotation Xrotation
						JOINT rHand
						{
							OFFSET -8.370511 0.000000 0.000000 
							CHANNELS 3 Zrotation Yrotation Xrotation
							End Site
							{
								OFFSET -4.083176 0.000000 0.000000 
							}
						}
					}
				}
			}
		}
	}
	JOINT lThigh
	{
		OFFSET 5.308129 -1.633274 1.361059 
		CHANNELS 3 Xrotation Zrotation Yrotation
		JOINT lShin
		{
			OFFSET -2.041588 -20.007561 0.000000 
			CHANNELS 3 Xrotation Zrotation Yrotation
			JOINT lFoot
			{
				OFFSET 0.000000 -19.190928 -1.224953 
				CHANNELS 3 Xrotation Yrotation Zrotation
				End Site
				{
					OFFSET 0.000000 -2.449906 4.627600 
				}
			}
		}
	}
	JOINT rThigh
	{
		OFFSET -5.308129 -1.633274 1.361059 
		CHANNELS 3 Xrotation Zrotation Yrotation
		JOINT rShin
		{
			OFFSET 2.041588 -20.007561 0.000000 
			CHANNELS 3 Xrotation Zrotation Yrotation
			JOINT rFoot
			{
				OFFSET 0.000000 -19.190928 -1.224953 
				CHANNELS 3 Xrotation Yrotation Zrotation
				End Site
				{
					OFFSET 0.000000 -2.449906 4.627600 
				}
			}
		}
	}
}
MOTION
Frames: 12
Frame Time: 0.033333
0.091725 46.908539 0.091725 -4.698546 -1.795208 -26.415377 13.831256 13.772559 -17.730970 -0.019531 0.000000 -0.019531 -8.544922 -0.001505 -0.009645 20.015574 18.813669 44.363846 2.000000 -2.000000 0.000000 5.773550 -58.428169 -54.066963 -47.023232 -0.594846 8.555335 -56.756672 -39.225655 -140.764648 -2.000000 2.000000 0.000000 137.550568 45.070618 83.335762 63.310463 0.522606 8.707255 1.929315 -39.480183 -35.285072 -31.716400 23.805874 13.581334 38.105350 -0.848330 -2.918522 2.141184 -7.416923 -9.911815 6.324509 -20.424103 -12.180147 35.402821 0.943565 2.725420 -27.782333 -16.160585 18.184784 
0.091725 46.700703 0.091725 -5.324934 -2.153406 -27.290091 13.583565 14.090224 -18.209383 -0.019531 0.000000 -0.019531 -8.544922 -0.001505 -0.009645 20.304863 18.517027 44.852734 2.000000 -2.000000 0.000000 -1.745809 -56.086689 -47.187153 -54.924644 -0.557936 8.621558 -53.973862 -35.808064 -144.901611 -2.000000 2.000000 0.000000 132.151337 44.020905 79.547844 67.923088 0.511261 8.756867 3.517991 -39.649895 -36.416245 -32.664368 24.753954 13.531882 40.330929 -0.741429 -3.032470 1.709764 -7.610868 -10.013034 4.009989 -21.446905 -11.691999 39.405651 0.758033 2.934131 -28.580059 -16.148149 18.498064 
0.091725 45.764095 0.091725 -6.814188 -2.874680 -26.698566 12.798463 15.013619 -19.660786 -0.019531 0.000000 -0.019531 -8.544922 -0.001505 -0.009645 21.175571 17.579502 46.337788 2.000000 -2.000000 0.000000 -21.243195 -49.221523 -26.445559 -82.224915 -0.507886 8.903832 -44.019924 -22.433258 -156.758713 -2.000000 2.000000 0.000000 106.500008 35.009628 64.066330 93.489372 0.530611 9.018788 3.402951 -42.983784 -36.327118 -34.598080 26.267685 14.286901 42.927467 -0.604997 -3.140943 2.659153 -10.973629 -9.126663 -0.225944 -22.554464 -11.602344 47.737755 0.308569 3.324393 -29.832630 -18.968870 18.523523 
0.091725 45.363419 0.091725 -6.853268 -2.864695 -26.336447 12.458183 15.405582 -20.280632 -0.019531 0.000000 -0.019531 -8.544922 -0.001505 -0.009645 21.537752 17.192488 46.943302 2.000000 -2.000000 0.000000 -19.164457 -49.417973 -28.801682 -84.411308 -0.511770 8.922145 -44.632294 -20.788025 -158.117203 -2.000000 2.000000 0.000000 105.841270 34.415531 63.568085 95.726601 0.532891 9.042693 3.550584 -42.120316 -36.237465 -35.965828 26.844564 14.440660 43.717575 -0.566242 -3.184543 3.147366 -12.342264 -8.803341 -2.178190 -22.800875 -11.577353 50.575043 0.152007 3.458698 -30.208548 -20.398920 18.419340 
0.091725 45.097881 0.091725 -6.617942 -2.749668 -26.351852 12.458183 15.405582 -20.280632 -0.019531 0.000000 -0.019531 -8.544922 -0.001505 -0.009645 21.537071 17.182972 46.950966 2.000000 -2.000000 0.000000 -14.522638 -51.136421 -33.684925 -84.168396 -0.510382 8.926422 -46.167801 -19.938402 -158.930588 -2.000000 2.000000 0.000000 106.492096 34.781784 63.732960 96.852371 0.536553 9.047911 3.521778 -41.185387 -36.229706 -37.192924 27.104372 13.965009 44.370918 -0.540152 -3.225935 3.381826 -12.323937 -8.888643 -3.877293 -22.860960 -11.176228 52.456772 0.035051 3.531816 -30.817917 -20.457121 18.194296 
0.091725 45.027878 0.091725 -6.304239 -2.586348 -26.355721 12.696004 15.131310 -19.857149 -0.019531 0.000000 -0.019531 -8.544922 -0.001505 -0.009645 21.290045 17.457251 46.524265 2.000000 -2.000000 0.000000 -9.301794 -53.530441 -38.664902 -84.797607 -0.508366 8.929487 -47.302021 -18.070065 -160.423004 -2.000000 2.000000 0.000000 104.926445 34.323933 62.880901 100.838150 0.553336 9.083168 2.775778 -41.019478 -35.876869 -37.875916 26.947638 13.305372 44.487457 -0.520598 -3.243463 3.473701 -11.534821 -9.158425 -4.609293 -22.633156 -10.724997 52.856438 0.011745 3.549077 -31.395300 -19.747799 17.916819 
0.091725 45.258152 0.091725 -5.892757 -2.384326 -26.375698 13.050160 14.722452 -19.192110 -0.019531 0.000000 -0.019531 -8.544922 -0.001505 -0.009645 20.899197 17.884607 45.865742 2.000000 -2.000000 0.000000 -5.755879 -54.862888 -42.500690 -80.808327 -0.506343 8.882652 -48.525574 -20.273085 -158.840744 -2.000000 2.000000 0.000000 107.878281 36.086185 64.428055 98.331726 0.541680 9.070140 2.953608 -40.497841 -36.298225 -37.615368 26.423876 12.742571 43.922596 -0.556418 -3.190841 3.252877 -10.345455 -9.512697 -3.818331 -22.212070 -10.520109 51.227734 0.109637 3.499217 -31.558029 -18.617767 17.733458 
0.091725 45.754093 0.091725 -5.471660 -2.172194 -26.394070 13.424374 14.280313 -18.495016 -0.019531 0.000000 -0.019531 -8.544922 -0.001505 -0.009645 20.487970 18.332710 45.147438 2.000000 -2.000000 0.000000 -3.722894 -55.362499 -45.140118 -70.803612 -0.516004 8.784847 -50.385494 -27.052416 -153.432480 -2.000000 2.000000 0.000000 116.991699 40.044319 69.648903 87.412643 0.518061 8.957273 4.362635 -38.755493 -37.690079 -36.159763 25.573719 12.624313 42.468121 -0.634302 -3.138868 2.820957 -9.008588 -9.786622 -1.290072 -21.643122 -10.717978 47.181446 0.337966 3.310081 -30.963120 -17.404032 17.763573 
0.091725 46.800842 0.091725 -4.894221 -1.891999 -26.420481 13.745916 13.877483 -17.887608 -0.019531 0.000000 -0.019531 -8.544922 -0.001505 -0.009645 20.111860 18.711588 44.523254 2.000000 -2.000000 0.000000 2.645713 -57.555721 -51.172306 -53.855064 -0.560902 8.616065 -54.517494 -35.984135 -144.687927 -2.000000 2.000000 0.000000 131.434082 44.073246 79.112656 70.233582 0.511164 8.782164 3.152825 -38.740261 -36.493660 -32.946415 24.274136 13.276587 39.315987 -0.783705 -2.977019 2.314388 -7.772877 -9.898592 4.198115 -20.770615 -11.749385 38.702835 0.787275 2.899323 -28.723866 -16.396473 18.063194 
0.091725 47.116375 0.091725 -4.698546 -1.795208 -26.415377 13.831256 13.772559 -17.730970 -0.019531 0.000000 -0.019531 -8.544922 -0.001505 -0.009645 20.015574 18.813669 44.363846 2.000000 -2.000000 0.000000 5.773550 -58.428169 -54.066963 -47.023232 -0.594846 8.555335 -56.756672 -39.225655 -140.764648 -2.000000 2.000000 0.000000 137.550568 45.070618 83.335762 63.310463 0.522606 8.707255 1.929315 -39.480183 -35.285072 -31.716400 23.805876 13.581334 38.105350 -0.848330 -2.918521 2.141181 -7.416923 -9.911815 6.324509 -20.424103 -12.180147 35.402821 0.943565 2.725420 -27.782335 -16.160582 18.184786 
0.091725 47.116375 0.091725 -4.698546 -1.795208 -26.415377 13.831256 13.772559 -17.730970 -0.019531 0.000000 -0.019531 -8.544922 -0.001505 -0.009645 20.015574 18.813669 44.363846 2.000000 -2.000000 0.000000 5.773550 -58.428169 -54.066963 -47.023232 -0.594846 8.555335 -56.756672 -39.225655 -140.764648 -2.000000 2.000000 0.000000 137.550568 45.070618 83.335762 63.310463 0.522606 8.707255 1.929315 -39.480183 -35.285072 -31.716400 23.805876 13.581334 38.105350 -0.848330 -2.918521 2.141181 -7.416923 -9.911815 6.324509 -20.424103 -12.180147 35.402821 0.943565 2.725420 -27.782335 -16.160582 18.184786 
0.091725 47.116375 0.091725 -4.698546 -1.795208 -26.415377 13.831256 13.772559 -17.730970 -0.019531 0.000000 -0.019531 -8.544922 -0.001505 -0.009645 20.015574 18.813669 44.363846 2.000000 -2.000000 0.000000 5.773550 -58.428169 -54.066963 -47.023232 -0.594846 8.555335 -56.756672 -39.225655 -140.764648 -2.000000 2.000000 0.000000 137.550568 45.070618 83.335762 63.310463 0.522606 8.707255 1.929315 -39.480183 -35.285072 -31.716400 23.805876 13.581334 38.105350 -0.848330 -2.918521 2.141181 -7.416923 -9.911815 6.324509 -20.424103 -12.180147 35.402821 0.943565 2.725420 -27.782335 -16.160582 18.184786 
